<mxfile host="Electron" agent="Mozilla/5.0 (Windows NT 10.0; Win64; x64) AppleWebKit/537.36 (KHTML, like Gecko) draw.io/26.0.9 Chrome/128.0.6613.186 Electron/32.2.5 Safari/537.36" version="26.0.9">
  <diagram name="第 1 页" id="0Xd2BPQV6SJP4wKe1HUx">
    <mxGraphModel dx="714" dy="419" grid="1" gridSize="10" guides="1" tooltips="1" connect="1" arrows="1" fold="1" page="1" pageScale="1" pageWidth="827" pageHeight="1169" math="0" shadow="0">
      <root>
        <mxCell id="0" />
        <mxCell id="1" parent="0" />
        <mxCell id="IUp1Z3UrL9nfAVYH8xyF-61" value="" style="group;movable=0;resizable=0;rotatable=0;deletable=0;editable=0;locked=1;connectable=0;strokeColor=none;" vertex="1" connectable="0" parent="1">
          <mxGeometry x="120" y="80" width="280" height="280" as="geometry" />
        </mxCell>
        <mxCell id="IUp1Z3UrL9nfAVYH8xyF-1" value="" style="rounded=0;whiteSpace=wrap;html=1;hachureGap=4;fontFamily=Architects Daughter;fontSource=https%3A%2F%2Ffonts.googleapis.com%2Fcss%3Ffamily%3DArchitects%2BDaughter;glass=0;shadow=0;fillColor=#111111;fontColor=#ffffff;strokeColor=none;" vertex="1" parent="IUp1Z3UrL9nfAVYH8xyF-61">
          <mxGeometry x="40" y="40" width="40" height="40" as="geometry" />
        </mxCell>
        <mxCell id="IUp1Z3UrL9nfAVYH8xyF-2" value="" style="rounded=0;whiteSpace=wrap;html=1;hachureGap=4;fontFamily=Architects Daughter;fontSource=https%3A%2F%2Ffonts.googleapis.com%2Fcss%3Ffamily%3DArchitects%2BDaughter;glass=0;shadow=0;fillColor=#222222;strokeColor=none;fontColor=#222222;" vertex="1" parent="IUp1Z3UrL9nfAVYH8xyF-61">
          <mxGeometry x="80" y="40" width="40" height="40" as="geometry" />
        </mxCell>
        <mxCell id="IUp1Z3UrL9nfAVYH8xyF-3" value="" style="rounded=0;whiteSpace=wrap;html=1;hachureGap=4;fontFamily=Architects Daughter;fontSource=https%3A%2F%2Ffonts.googleapis.com%2Fcss%3Ffamily%3DArchitects%2BDaughter;glass=0;shadow=0;fillColor=#333333;fontColor=#ffffff;strokeColor=none;" vertex="1" parent="IUp1Z3UrL9nfAVYH8xyF-61">
          <mxGeometry x="120" y="40" width="40" height="40" as="geometry" />
        </mxCell>
        <mxCell id="IUp1Z3UrL9nfAVYH8xyF-4" value="" style="rounded=0;whiteSpace=wrap;html=1;hachureGap=4;fontFamily=Architects Daughter;fontSource=https%3A%2F%2Ffonts.googleapis.com%2Fcss%3Ffamily%3DArchitects%2BDaughter;glass=0;shadow=0;fillColor=#444444;fontColor=#ffffff;strokeColor=none;" vertex="1" parent="IUp1Z3UrL9nfAVYH8xyF-61">
          <mxGeometry x="160" y="40" width="40" height="40" as="geometry" />
        </mxCell>
        <mxCell id="IUp1Z3UrL9nfAVYH8xyF-5" value="" style="rounded=0;whiteSpace=wrap;html=1;hachureGap=4;fontFamily=Architects Daughter;fontSource=https%3A%2F%2Ffonts.googleapis.com%2Fcss%3Ffamily%3DArchitects%2BDaughter;glass=0;shadow=0;fillColor=#555555;fontColor=#ffffff;strokeColor=none;direction=south;" vertex="1" parent="IUp1Z3UrL9nfAVYH8xyF-61">
          <mxGeometry x="200" y="40" width="40" height="40" as="geometry" />
        </mxCell>
        <mxCell id="IUp1Z3UrL9nfAVYH8xyF-6" value="" style="rounded=0;whiteSpace=wrap;html=1;hachureGap=4;fontFamily=Architects Daughter;fontSource=https%3A%2F%2Ffonts.googleapis.com%2Fcss%3Ffamily%3DArchitects%2BDaughter;glass=0;shadow=0;fillColor=#555555;fontColor=#ffffff;strokeColor=none;align=center;verticalAlign=middle;fontSize=12;" vertex="1" parent="IUp1Z3UrL9nfAVYH8xyF-61">
          <mxGeometry x="40" y="80" width="40" height="40" as="geometry" />
        </mxCell>
        <mxCell id="IUp1Z3UrL9nfAVYH8xyF-7" value="" style="rounded=0;whiteSpace=wrap;html=1;hachureGap=4;fontFamily=Architects Daughter;fontSource=https%3A%2F%2Ffonts.googleapis.com%2Fcss%3Ffamily%3DArchitects%2BDaughter;glass=0;shadow=0;fillColor=#999999;fontColor=#ffffff;strokeColor=none;" vertex="1" parent="IUp1Z3UrL9nfAVYH8xyF-61">
          <mxGeometry x="80" y="80" width="40" height="40" as="geometry" />
        </mxCell>
        <mxCell id="IUp1Z3UrL9nfAVYH8xyF-8" value="" style="rounded=0;whiteSpace=wrap;html=1;hachureGap=4;fontFamily=Architects Daughter;fontSource=https%3A%2F%2Ffonts.googleapis.com%2Fcss%3Ffamily%3DArchitects%2BDaughter;glass=0;shadow=0;fillColor=#BBBBBB;fontColor=#ffffff;strokeColor=none;" vertex="1" parent="IUp1Z3UrL9nfAVYH8xyF-61">
          <mxGeometry x="120" y="80" width="40" height="40" as="geometry" />
        </mxCell>
        <mxCell id="IUp1Z3UrL9nfAVYH8xyF-9" value="" style="rounded=0;whiteSpace=wrap;html=1;hachureGap=4;fontFamily=Architects Daughter;fontSource=https%3A%2F%2Ffonts.googleapis.com%2Fcss%3Ffamily%3DArchitects%2BDaughter;glass=0;shadow=0;fillColor=#DDDDDD;fontColor=#ffffff;strokeColor=none;" vertex="1" parent="IUp1Z3UrL9nfAVYH8xyF-61">
          <mxGeometry x="160" y="80" width="40" height="40" as="geometry" />
        </mxCell>
        <mxCell id="IUp1Z3UrL9nfAVYH8xyF-10" value="" style="rounded=0;whiteSpace=wrap;html=1;hachureGap=4;fontFamily=Architects Daughter;fontSource=https%3A%2F%2Ffonts.googleapis.com%2Fcss%3Ffamily%3DArchitects%2BDaughter;glass=0;shadow=0;fillColor=#FFFFFF;fontColor=#ffffff;strokeColor=none;" vertex="1" parent="IUp1Z3UrL9nfAVYH8xyF-61">
          <mxGeometry x="200" y="80" width="40" height="40" as="geometry" />
        </mxCell>
        <mxCell id="IUp1Z3UrL9nfAVYH8xyF-11" value="" style="rounded=0;whiteSpace=wrap;html=1;hachureGap=4;fontFamily=Architects Daughter;fontSource=https%3A%2F%2Ffonts.googleapis.com%2Fcss%3Ffamily%3DArchitects%2BDaughter;glass=0;shadow=0;fillColor=#FFFFFF;fontColor=#ffffff;strokeColor=none;align=center;verticalAlign=middle;fontSize=12;" vertex="1" parent="IUp1Z3UrL9nfAVYH8xyF-61">
          <mxGeometry x="40" y="120" width="40" height="40" as="geometry" />
        </mxCell>
        <mxCell id="IUp1Z3UrL9nfAVYH8xyF-12" value="" style="rounded=0;whiteSpace=wrap;html=1;hachureGap=4;fontFamily=Architects Daughter;fontSource=https%3A%2F%2Ffonts.googleapis.com%2Fcss%3Ffamily%3DArchitects%2BDaughter;glass=0;shadow=0;fillColor=#DDDDDD;fontColor=#ffffff;strokeColor=none;align=center;verticalAlign=middle;fontSize=12;" vertex="1" parent="IUp1Z3UrL9nfAVYH8xyF-61">
          <mxGeometry x="80" y="120" width="40" height="40" as="geometry" />
        </mxCell>
        <mxCell id="IUp1Z3UrL9nfAVYH8xyF-13" value="" style="rounded=0;whiteSpace=wrap;html=1;hachureGap=4;fontFamily=Architects Daughter;fontSource=https%3A%2F%2Ffonts.googleapis.com%2Fcss%3Ffamily%3DArchitects%2BDaughter;glass=0;shadow=0;fillColor=#BBBBBB;fontColor=#ffffff;strokeColor=none;align=center;verticalAlign=middle;fontSize=12;" vertex="1" parent="IUp1Z3UrL9nfAVYH8xyF-61">
          <mxGeometry x="120" y="120" width="40" height="40" as="geometry" />
        </mxCell>
        <mxCell id="IUp1Z3UrL9nfAVYH8xyF-14" value="" style="rounded=0;whiteSpace=wrap;html=1;hachureGap=4;fontFamily=Architects Daughter;fontSource=https%3A%2F%2Ffonts.googleapis.com%2Fcss%3Ffamily%3DArchitects%2BDaughter;glass=0;shadow=0;fillColor=#999999;fontColor=#ffffff;strokeColor=none;align=center;verticalAlign=middle;fontSize=12;" vertex="1" parent="IUp1Z3UrL9nfAVYH8xyF-61">
          <mxGeometry x="160" y="120" width="40" height="40" as="geometry" />
        </mxCell>
        <mxCell id="IUp1Z3UrL9nfAVYH8xyF-15" value="" style="rounded=0;whiteSpace=wrap;html=1;hachureGap=4;fontFamily=Architects Daughter;fontSource=https%3A%2F%2Ffonts.googleapis.com%2Fcss%3Ffamily%3DArchitects%2BDaughter;glass=0;shadow=0;fillColor=#555555;fontColor=#ffffff;strokeColor=none;align=center;verticalAlign=middle;fontSize=12;" vertex="1" parent="IUp1Z3UrL9nfAVYH8xyF-61">
          <mxGeometry x="200" y="120" width="40" height="40" as="geometry" />
        </mxCell>
        <mxCell id="IUp1Z3UrL9nfAVYH8xyF-16" value="" style="rounded=0;whiteSpace=wrap;html=1;hachureGap=4;fontFamily=Architects Daughter;fontSource=https%3A%2F%2Ffonts.googleapis.com%2Fcss%3Ffamily%3DArchitects%2BDaughter;glass=0;shadow=0;fillColor=#555555;fontColor=#ffffff;strokeColor=none;align=center;verticalAlign=middle;fontSize=12;" vertex="1" parent="IUp1Z3UrL9nfAVYH8xyF-61">
          <mxGeometry x="40" y="160" width="40" height="40" as="geometry" />
        </mxCell>
        <mxCell id="IUp1Z3UrL9nfAVYH8xyF-17" value="" style="rounded=0;whiteSpace=wrap;html=1;hachureGap=4;fontFamily=Architects Daughter;fontSource=https%3A%2F%2Ffonts.googleapis.com%2Fcss%3Ffamily%3DArchitects%2BDaughter;glass=0;shadow=0;fillColor=#444444;fontColor=#ffffff;strokeColor=none;align=center;verticalAlign=middle;fontSize=12;" vertex="1" parent="IUp1Z3UrL9nfAVYH8xyF-61">
          <mxGeometry x="80" y="160" width="40" height="40" as="geometry" />
        </mxCell>
        <mxCell id="IUp1Z3UrL9nfAVYH8xyF-18" value="" style="rounded=0;whiteSpace=wrap;html=1;hachureGap=4;fontFamily=Architects Daughter;fontSource=https%3A%2F%2Ffonts.googleapis.com%2Fcss%3Ffamily%3DArchitects%2BDaughter;glass=0;shadow=0;fillColor=#333333;fontColor=#ffffff;strokeColor=none;align=center;verticalAlign=middle;fontSize=12;" vertex="1" parent="IUp1Z3UrL9nfAVYH8xyF-61">
          <mxGeometry x="120" y="160" width="40" height="40" as="geometry" />
        </mxCell>
        <mxCell id="IUp1Z3UrL9nfAVYH8xyF-19" value="" style="rounded=0;whiteSpace=wrap;html=1;hachureGap=4;fontFamily=Architects Daughter;fontSource=https%3A%2F%2Ffonts.googleapis.com%2Fcss%3Ffamily%3DArchitects%2BDaughter;glass=0;shadow=0;fillColor=#222222;fontColor=#222222;strokeColor=none;align=center;verticalAlign=middle;fontSize=12;" vertex="1" parent="IUp1Z3UrL9nfAVYH8xyF-61">
          <mxGeometry x="160" y="160" width="40" height="40" as="geometry" />
        </mxCell>
        <mxCell id="IUp1Z3UrL9nfAVYH8xyF-20" value="" style="rounded=0;whiteSpace=wrap;html=1;hachureGap=4;fontFamily=Architects Daughter;fontSource=https%3A%2F%2Ffonts.googleapis.com%2Fcss%3Ffamily%3DArchitects%2BDaughter;glass=0;shadow=0;fillColor=#111111;fontColor=#ffffff;strokeColor=none;align=center;verticalAlign=middle;fontSize=12;" vertex="1" parent="IUp1Z3UrL9nfAVYH8xyF-61">
          <mxGeometry x="200" y="160" width="40" height="40" as="geometry" />
        </mxCell>
        <mxCell id="IUp1Z3UrL9nfAVYH8xyF-21" value="" style="rounded=0;whiteSpace=wrap;html=1;hachureGap=4;fontFamily=Architects Daughter;fontSource=https%3A%2F%2Ffonts.googleapis.com%2Fcss%3Ffamily%3DArchitects%2BDaughter;glass=0;shadow=0;fillColor=#111111;fontColor=#ffffff;strokeColor=none;align=center;verticalAlign=middle;fontSize=12;" vertex="1" parent="IUp1Z3UrL9nfAVYH8xyF-61">
          <mxGeometry x="40" y="200" width="40" height="40" as="geometry" />
        </mxCell>
        <mxCell id="IUp1Z3UrL9nfAVYH8xyF-22" value="" style="rounded=0;whiteSpace=wrap;html=1;hachureGap=4;fontFamily=Architects Daughter;fontSource=https%3A%2F%2Ffonts.googleapis.com%2Fcss%3Ffamily%3DArchitects%2BDaughter;glass=0;shadow=0;fillColor=#222222;fontColor=#222222;strokeColor=none;align=center;verticalAlign=middle;fontSize=12;" vertex="1" parent="IUp1Z3UrL9nfAVYH8xyF-61">
          <mxGeometry x="80" y="200" width="40" height="40" as="geometry" />
        </mxCell>
        <mxCell id="IUp1Z3UrL9nfAVYH8xyF-23" value="" style="rounded=0;whiteSpace=wrap;html=1;hachureGap=4;fontFamily=Architects Daughter;fontSource=https%3A%2F%2Ffonts.googleapis.com%2Fcss%3Ffamily%3DArchitects%2BDaughter;glass=0;shadow=0;fillColor=#333333;fontColor=#ffffff;strokeColor=none;align=center;verticalAlign=middle;fontSize=12;" vertex="1" parent="IUp1Z3UrL9nfAVYH8xyF-61">
          <mxGeometry x="120" y="200" width="40" height="40" as="geometry" />
        </mxCell>
        <mxCell id="IUp1Z3UrL9nfAVYH8xyF-24" value="" style="rounded=0;whiteSpace=wrap;html=1;hachureGap=4;fontFamily=Architects Daughter;fontSource=https%3A%2F%2Ffonts.googleapis.com%2Fcss%3Ffamily%3DArchitects%2BDaughter;glass=0;shadow=0;fillColor=#444444;fontColor=#ffffff;strokeColor=none;align=center;verticalAlign=middle;fontSize=12;" vertex="1" parent="IUp1Z3UrL9nfAVYH8xyF-61">
          <mxGeometry x="160" y="200" width="40" height="40" as="geometry" />
        </mxCell>
        <mxCell id="IUp1Z3UrL9nfAVYH8xyF-25" value="" style="rounded=0;whiteSpace=wrap;html=1;hachureGap=4;fontFamily=Architects Daughter;fontSource=https%3A%2F%2Ffonts.googleapis.com%2Fcss%3Ffamily%3DArchitects%2BDaughter;glass=0;shadow=0;fillColor=#555555;fontColor=#ffffff;strokeColor=none;align=center;verticalAlign=middle;fontSize=12;" vertex="1" parent="IUp1Z3UrL9nfAVYH8xyF-61">
          <mxGeometry x="200" y="200" width="40" height="40" as="geometry" />
        </mxCell>
        <mxCell id="IUp1Z3UrL9nfAVYH8xyF-27" value="" style="rounded=0;whiteSpace=wrap;html=1;hachureGap=4;fontFamily=Architects Daughter;fontSource=https%3A%2F%2Ffonts.googleapis.com%2Fcss%3Ffamily%3DArchitects%2BDaughter;glass=0;shadow=0;fillColor=#647687;fontColor=#ffffff;strokeColor=none;" vertex="1" parent="IUp1Z3UrL9nfAVYH8xyF-61">
          <mxGeometry width="40" height="40" as="geometry" />
        </mxCell>
        <mxCell id="IUp1Z3UrL9nfAVYH8xyF-28" value="" style="rounded=0;whiteSpace=wrap;html=1;hachureGap=4;fontFamily=Architects Daughter;fontSource=https%3A%2F%2Ffonts.googleapis.com%2Fcss%3Ffamily%3DArchitects%2BDaughter;glass=0;shadow=0;fillColor=#647687;fontColor=#ffffff;strokeColor=none;" vertex="1" parent="IUp1Z3UrL9nfAVYH8xyF-61">
          <mxGeometry y="40" width="40" height="40" as="geometry" />
        </mxCell>
        <mxCell id="IUp1Z3UrL9nfAVYH8xyF-29" value="" style="rounded=0;whiteSpace=wrap;html=1;hachureGap=4;fontFamily=Architects Daughter;fontSource=https%3A%2F%2Ffonts.googleapis.com%2Fcss%3Ffamily%3DArchitects%2BDaughter;glass=0;shadow=0;fillColor=#647687;fontColor=#ffffff;strokeColor=none;" vertex="1" parent="IUp1Z3UrL9nfAVYH8xyF-61">
          <mxGeometry y="80" width="40" height="40" as="geometry" />
        </mxCell>
        <mxCell id="IUp1Z3UrL9nfAVYH8xyF-30" value="" style="rounded=0;whiteSpace=wrap;html=1;hachureGap=4;fontFamily=Architects Daughter;fontSource=https%3A%2F%2Ffonts.googleapis.com%2Fcss%3Ffamily%3DArchitects%2BDaughter;glass=0;shadow=0;fillColor=#647687;fontColor=#ffffff;strokeColor=none;" vertex="1" parent="IUp1Z3UrL9nfAVYH8xyF-61">
          <mxGeometry y="120" width="40" height="40" as="geometry" />
        </mxCell>
        <mxCell id="IUp1Z3UrL9nfAVYH8xyF-31" value="" style="rounded=0;whiteSpace=wrap;html=1;hachureGap=4;fontFamily=Architects Daughter;fontSource=https%3A%2F%2Ffonts.googleapis.com%2Fcss%3Ffamily%3DArchitects%2BDaughter;glass=0;shadow=0;fillColor=#647687;fontColor=#ffffff;strokeColor=none;" vertex="1" parent="IUp1Z3UrL9nfAVYH8xyF-61">
          <mxGeometry y="160" width="40" height="40" as="geometry" />
        </mxCell>
        <mxCell id="IUp1Z3UrL9nfAVYH8xyF-32" value="" style="rounded=0;whiteSpace=wrap;html=1;hachureGap=4;fontFamily=Architects Daughter;fontSource=https%3A%2F%2Ffonts.googleapis.com%2Fcss%3Ffamily%3DArchitects%2BDaughter;glass=0;shadow=0;fillColor=#647687;fontColor=#ffffff;strokeColor=none;" vertex="1" parent="IUp1Z3UrL9nfAVYH8xyF-61">
          <mxGeometry y="200" width="40" height="40" as="geometry" />
        </mxCell>
        <mxCell id="IUp1Z3UrL9nfAVYH8xyF-33" value="" style="rounded=0;whiteSpace=wrap;html=1;hachureGap=4;fontFamily=Architects Daughter;fontSource=https%3A%2F%2Ffonts.googleapis.com%2Fcss%3Ffamily%3DArchitects%2BDaughter;glass=0;shadow=0;fillColor=#647687;fontColor=#ffffff;strokeColor=none;" vertex="1" parent="IUp1Z3UrL9nfAVYH8xyF-61">
          <mxGeometry y="240" width="40" height="40" as="geometry" />
        </mxCell>
        <mxCell id="IUp1Z3UrL9nfAVYH8xyF-34" value="" style="rounded=0;whiteSpace=wrap;html=1;hachureGap=4;fontFamily=Architects Daughter;fontSource=https%3A%2F%2Ffonts.googleapis.com%2Fcss%3Ffamily%3DArchitects%2BDaughter;glass=0;shadow=0;fillColor=#647687;fontColor=#ffffff;strokeColor=none;" vertex="1" parent="IUp1Z3UrL9nfAVYH8xyF-61">
          <mxGeometry x="240" width="40" height="40" as="geometry" />
        </mxCell>
        <mxCell id="IUp1Z3UrL9nfAVYH8xyF-35" value="" style="rounded=0;whiteSpace=wrap;html=1;hachureGap=4;fontFamily=Architects Daughter;fontSource=https%3A%2F%2Ffonts.googleapis.com%2Fcss%3Ffamily%3DArchitects%2BDaughter;glass=0;shadow=0;fillColor=#647687;fontColor=#ffffff;strokeColor=none;movable=0;resizable=0;rotatable=0;deletable=0;editable=0;locked=1;connectable=0;" vertex="1" parent="IUp1Z3UrL9nfAVYH8xyF-61">
          <mxGeometry x="240" y="40" width="40" height="40" as="geometry" />
        </mxCell>
        <mxCell id="IUp1Z3UrL9nfAVYH8xyF-36" value="" style="rounded=0;whiteSpace=wrap;html=1;hachureGap=4;fontFamily=Architects Daughter;fontSource=https%3A%2F%2Ffonts.googleapis.com%2Fcss%3Ffamily%3DArchitects%2BDaughter;glass=0;shadow=0;fillColor=#647687;fontColor=#ffffff;strokeColor=none;" vertex="1" parent="IUp1Z3UrL9nfAVYH8xyF-61">
          <mxGeometry x="240" y="80" width="40" height="40" as="geometry" />
        </mxCell>
        <mxCell id="IUp1Z3UrL9nfAVYH8xyF-37" value="" style="rounded=0;whiteSpace=wrap;html=1;hachureGap=4;fontFamily=Architects Daughter;fontSource=https%3A%2F%2Ffonts.googleapis.com%2Fcss%3Ffamily%3DArchitects%2BDaughter;glass=0;shadow=0;fillColor=#647687;fontColor=#ffffff;strokeColor=none;" vertex="1" parent="IUp1Z3UrL9nfAVYH8xyF-61">
          <mxGeometry x="240" y="120" width="40" height="40" as="geometry" />
        </mxCell>
        <mxCell id="IUp1Z3UrL9nfAVYH8xyF-38" value="" style="rounded=0;whiteSpace=wrap;html=1;hachureGap=4;fontFamily=Architects Daughter;fontSource=https%3A%2F%2Ffonts.googleapis.com%2Fcss%3Ffamily%3DArchitects%2BDaughter;glass=0;shadow=0;fillColor=#647687;fontColor=#ffffff;strokeColor=none;" vertex="1" parent="IUp1Z3UrL9nfAVYH8xyF-61">
          <mxGeometry x="240" y="160" width="40" height="40" as="geometry" />
        </mxCell>
        <mxCell id="IUp1Z3UrL9nfAVYH8xyF-39" value="" style="rounded=0;whiteSpace=wrap;html=1;hachureGap=4;fontFamily=Architects Daughter;fontSource=https%3A%2F%2Ffonts.googleapis.com%2Fcss%3Ffamily%3DArchitects%2BDaughter;glass=0;shadow=0;fillColor=#647687;fontColor=#ffffff;strokeColor=none;" vertex="1" parent="IUp1Z3UrL9nfAVYH8xyF-61">
          <mxGeometry x="240" y="200" width="40" height="40" as="geometry" />
        </mxCell>
        <mxCell id="IUp1Z3UrL9nfAVYH8xyF-40" value="" style="rounded=0;whiteSpace=wrap;html=1;hachureGap=4;fontFamily=Architects Daughter;fontSource=https%3A%2F%2Ffonts.googleapis.com%2Fcss%3Ffamily%3DArchitects%2BDaughter;glass=0;shadow=0;fillColor=#647687;fontColor=#ffffff;strokeColor=none;" vertex="1" parent="IUp1Z3UrL9nfAVYH8xyF-61">
          <mxGeometry x="240" y="240" width="40" height="40" as="geometry" />
        </mxCell>
        <mxCell id="IUp1Z3UrL9nfAVYH8xyF-41" value="" style="rounded=0;whiteSpace=wrap;html=1;hachureGap=4;fontFamily=Architects Daughter;fontSource=https%3A%2F%2Ffonts.googleapis.com%2Fcss%3Ffamily%3DArchitects%2BDaughter;glass=0;shadow=0;fillColor=#647687;fontColor=#ffffff;strokeColor=none;" vertex="1" parent="IUp1Z3UrL9nfAVYH8xyF-61">
          <mxGeometry x="40" width="40" height="40" as="geometry" />
        </mxCell>
        <mxCell id="IUp1Z3UrL9nfAVYH8xyF-42" value="" style="rounded=0;whiteSpace=wrap;html=1;hachureGap=4;fontFamily=Architects Daughter;fontSource=https%3A%2F%2Ffonts.googleapis.com%2Fcss%3Ffamily%3DArchitects%2BDaughter;glass=0;shadow=0;fillColor=#647687;fontColor=#ffffff;strokeColor=none;" vertex="1" parent="IUp1Z3UrL9nfAVYH8xyF-61">
          <mxGeometry x="80" width="40" height="40" as="geometry" />
        </mxCell>
        <mxCell id="IUp1Z3UrL9nfAVYH8xyF-43" value="" style="rounded=0;whiteSpace=wrap;html=1;hachureGap=4;fontFamily=Architects Daughter;fontSource=https%3A%2F%2Ffonts.googleapis.com%2Fcss%3Ffamily%3DArchitects%2BDaughter;glass=0;shadow=0;fillColor=#647687;fontColor=#ffffff;strokeColor=none;" vertex="1" parent="IUp1Z3UrL9nfAVYH8xyF-61">
          <mxGeometry x="120" width="40" height="40" as="geometry" />
        </mxCell>
        <mxCell id="IUp1Z3UrL9nfAVYH8xyF-44" value="" style="rounded=0;whiteSpace=wrap;html=1;hachureGap=4;fontFamily=Architects Daughter;fontSource=https%3A%2F%2Ffonts.googleapis.com%2Fcss%3Ffamily%3DArchitects%2BDaughter;glass=0;shadow=0;fillColor=#647687;fontColor=#ffffff;strokeColor=none;" vertex="1" parent="IUp1Z3UrL9nfAVYH8xyF-61">
          <mxGeometry x="160" width="40" height="40" as="geometry" />
        </mxCell>
        <mxCell id="IUp1Z3UrL9nfAVYH8xyF-45" value="" style="rounded=0;whiteSpace=wrap;html=1;hachureGap=4;fontFamily=Architects Daughter;fontSource=https%3A%2F%2Ffonts.googleapis.com%2Fcss%3Ffamily%3DArchitects%2BDaughter;glass=0;shadow=0;fillColor=#647687;fontColor=#ffffff;strokeColor=none;" vertex="1" parent="IUp1Z3UrL9nfAVYH8xyF-61">
          <mxGeometry x="200" width="40" height="40" as="geometry" />
        </mxCell>
        <mxCell id="IUp1Z3UrL9nfAVYH8xyF-46" value="" style="rounded=0;whiteSpace=wrap;html=1;hachureGap=4;fontFamily=Architects Daughter;fontSource=https%3A%2F%2Ffonts.googleapis.com%2Fcss%3Ffamily%3DArchitects%2BDaughter;glass=0;shadow=0;fillColor=#647687;fontColor=#ffffff;strokeColor=none;" vertex="1" parent="IUp1Z3UrL9nfAVYH8xyF-61">
          <mxGeometry x="40" y="240" width="40" height="40" as="geometry" />
        </mxCell>
        <mxCell id="IUp1Z3UrL9nfAVYH8xyF-47" value="" style="rounded=0;whiteSpace=wrap;html=1;hachureGap=4;fontFamily=Architects Daughter;fontSource=https%3A%2F%2Ffonts.googleapis.com%2Fcss%3Ffamily%3DArchitects%2BDaughter;glass=0;shadow=0;fillColor=#647687;fontColor=#ffffff;strokeColor=none;" vertex="1" parent="IUp1Z3UrL9nfAVYH8xyF-61">
          <mxGeometry x="80" y="240" width="40" height="40" as="geometry" />
        </mxCell>
        <mxCell id="IUp1Z3UrL9nfAVYH8xyF-48" value="" style="rounded=0;whiteSpace=wrap;html=1;hachureGap=4;fontFamily=Architects Daughter;fontSource=https%3A%2F%2Ffonts.googleapis.com%2Fcss%3Ffamily%3DArchitects%2BDaughter;glass=0;shadow=0;fillColor=#647687;fontColor=#ffffff;strokeColor=none;" vertex="1" parent="IUp1Z3UrL9nfAVYH8xyF-61">
          <mxGeometry x="120" y="240" width="40" height="40" as="geometry" />
        </mxCell>
        <mxCell id="IUp1Z3UrL9nfAVYH8xyF-49" value="" style="rounded=0;whiteSpace=wrap;html=1;hachureGap=4;fontFamily=Architects Daughter;fontSource=https%3A%2F%2Ffonts.googleapis.com%2Fcss%3Ffamily%3DArchitects%2BDaughter;glass=0;shadow=0;fillColor=#647687;fontColor=#ffffff;strokeColor=none;" vertex="1" parent="IUp1Z3UrL9nfAVYH8xyF-61">
          <mxGeometry x="160" y="240" width="40" height="40" as="geometry" />
        </mxCell>
        <mxCell id="IUp1Z3UrL9nfAVYH8xyF-50" value="" style="rounded=0;whiteSpace=wrap;html=1;hachureGap=4;fontFamily=Architects Daughter;fontSource=https%3A%2F%2Ffonts.googleapis.com%2Fcss%3Ffamily%3DArchitects%2BDaughter;glass=0;shadow=0;fillColor=#647687;fontColor=#ffffff;strokeColor=none;" vertex="1" parent="IUp1Z3UrL9nfAVYH8xyF-61">
          <mxGeometry x="200" y="240" width="40" height="40" as="geometry" />
        </mxCell>
        <mxCell id="IUp1Z3UrL9nfAVYH8xyF-60" value="" style="group;strokeColor=none;" vertex="1" connectable="0" parent="1">
          <mxGeometry x="414" y="120" width="120" height="120" as="geometry" />
        </mxCell>
        <mxCell id="IUp1Z3UrL9nfAVYH8xyF-51" value="-1" style="rounded=0;whiteSpace=wrap;html=1;hachureGap=4;fontFamily=Architects Daughter;fontSource=https%3A%2F%2Ffonts.googleapis.com%2Fcss%3Ffamily%3DArchitects%2BDaughter;opacity=30;fillColor=#99FF33;strokeColor=none;" vertex="1" parent="IUp1Z3UrL9nfAVYH8xyF-60">
          <mxGeometry width="40" height="40" as="geometry" />
        </mxCell>
        <mxCell id="IUp1Z3UrL9nfAVYH8xyF-52" value="0" style="rounded=0;whiteSpace=wrap;html=1;hachureGap=4;fontFamily=Architects Daughter;fontSource=https%3A%2F%2Ffonts.googleapis.com%2Fcss%3Ffamily%3DArchitects%2BDaughter;strokeColor=none;" vertex="1" parent="IUp1Z3UrL9nfAVYH8xyF-60">
          <mxGeometry x="40" width="40" height="40" as="geometry" />
        </mxCell>
        <mxCell id="IUp1Z3UrL9nfAVYH8xyF-53" value="1" style="rounded=0;whiteSpace=wrap;html=1;hachureGap=4;fontFamily=Architects Daughter;fontSource=https%3A%2F%2Ffonts.googleapis.com%2Fcss%3Ffamily%3DArchitects%2BDaughter;opacity=30;fillColor=#FF6666;strokeColor=none;" vertex="1" parent="IUp1Z3UrL9nfAVYH8xyF-60">
          <mxGeometry x="80" width="40" height="40" as="geometry" />
        </mxCell>
        <mxCell id="IUp1Z3UrL9nfAVYH8xyF-54" value="2" style="rounded=0;whiteSpace=wrap;html=1;hachureGap=4;fontFamily=Architects Daughter;fontSource=https%3A%2F%2Ffonts.googleapis.com%2Fcss%3Ffamily%3DArchitects%2BDaughter;opacity=50;fillColor=#FF9999;strokeColor=none;" vertex="1" parent="IUp1Z3UrL9nfAVYH8xyF-60">
          <mxGeometry x="80" y="40" width="40" height="40" as="geometry" />
        </mxCell>
        <mxCell id="IUp1Z3UrL9nfAVYH8xyF-55" value="0" style="rounded=0;whiteSpace=wrap;html=1;hachureGap=4;fontFamily=Architects Daughter;fontSource=https%3A%2F%2Ffonts.googleapis.com%2Fcss%3Ffamily%3DArchitects%2BDaughter;strokeColor=none;" vertex="1" parent="IUp1Z3UrL9nfAVYH8xyF-60">
          <mxGeometry x="40" y="40" width="40" height="40" as="geometry" />
        </mxCell>
        <mxCell id="IUp1Z3UrL9nfAVYH8xyF-56" value="-2" style="rounded=0;whiteSpace=wrap;html=1;hachureGap=4;fontFamily=Architects Daughter;fontSource=https%3A%2F%2Ffonts.googleapis.com%2Fcss%3Ffamily%3DArchitects%2BDaughter;opacity=50;fillColor=#99FF99;strokeColor=none;" vertex="1" parent="IUp1Z3UrL9nfAVYH8xyF-60">
          <mxGeometry y="40" width="40" height="40" as="geometry" />
        </mxCell>
        <mxCell id="IUp1Z3UrL9nfAVYH8xyF-57" value="-1" style="rounded=0;whiteSpace=wrap;html=1;hachureGap=4;fontFamily=Architects Daughter;fontSource=https%3A%2F%2Ffonts.googleapis.com%2Fcss%3Ffamily%3DArchitects%2BDaughter;opacity=30;fillColor=#99FF33;strokeColor=none;align=center;verticalAlign=middle;fontSize=12;fontColor=default;" vertex="1" parent="IUp1Z3UrL9nfAVYH8xyF-60">
          <mxGeometry y="80" width="40" height="40" as="geometry" />
        </mxCell>
        <mxCell id="IUp1Z3UrL9nfAVYH8xyF-58" value="0" style="rounded=0;whiteSpace=wrap;html=1;hachureGap=4;fontFamily=Architects Daughter;fontSource=https%3A%2F%2Ffonts.googleapis.com%2Fcss%3Ffamily%3DArchitects%2BDaughter;strokeColor=none;" vertex="1" parent="IUp1Z3UrL9nfAVYH8xyF-60">
          <mxGeometry x="40" y="80" width="40" height="40" as="geometry" />
        </mxCell>
        <mxCell id="IUp1Z3UrL9nfAVYH8xyF-59" value="1" style="rounded=0;whiteSpace=wrap;html=1;hachureGap=4;fontFamily=Architects Daughter;fontSource=https%3A%2F%2Ffonts.googleapis.com%2Fcss%3Ffamily%3DArchitects%2BDaughter;opacity=30;fillColor=#FF6666;strokeColor=none;align=center;verticalAlign=middle;fontSize=12;fontColor=default;" vertex="1" parent="IUp1Z3UrL9nfAVYH8xyF-60">
          <mxGeometry x="80" y="80" width="40" height="40" as="geometry" />
        </mxCell>
        <mxCell id="IUp1Z3UrL9nfAVYH8xyF-62" value="*" style="rounded=0;whiteSpace=wrap;html=1;hachureGap=4;fontFamily=Architects Daughter;fontSource=https%3A%2F%2Ffonts.googleapis.com%2Fcss%3Ffamily%3DArchitects%2BDaughter;strokeColor=#3A5431;fillColor=#6d8764;fontColor=#ffffff;" vertex="1" parent="1">
          <mxGeometry x="560" y="120" width="40" height="40" as="geometry" />
        </mxCell>
        <mxCell id="IUp1Z3UrL9nfAVYH8xyF-63" value="*" style="rounded=0;whiteSpace=wrap;html=1;hachureGap=4;fontFamily=Architects Daughter;fontSource=https%3A%2F%2Ffonts.googleapis.com%2Fcss%3Ffamily%3DArchitects%2BDaughter;strokeColor=#3A5431;fillColor=#6d8764;fontColor=#ffffff;" vertex="1" parent="1">
          <mxGeometry x="600" y="120" width="40" height="40" as="geometry" />
        </mxCell>
        <mxCell id="IUp1Z3UrL9nfAVYH8xyF-64" value="*" style="rounded=0;whiteSpace=wrap;html=1;hachureGap=4;fontFamily=Architects Daughter;fontSource=https%3A%2F%2Ffonts.googleapis.com%2Fcss%3Ffamily%3DArchitects%2BDaughter;strokeColor=#3A5431;fillColor=#6d8764;fontColor=#ffffff;" vertex="1" parent="1">
          <mxGeometry x="640" y="120" width="40" height="40" as="geometry" />
        </mxCell>
        <mxCell id="IUp1Z3UrL9nfAVYH8xyF-65" value="*" style="rounded=0;whiteSpace=wrap;html=1;hachureGap=4;fontFamily=Architects Daughter;fontSource=https%3A%2F%2Ffonts.googleapis.com%2Fcss%3Ffamily%3DArchitects%2BDaughter;strokeColor=#3A5431;fillColor=#6d8764;fontColor=#ffffff;" vertex="1" parent="1">
          <mxGeometry x="680" y="120" width="40" height="40" as="geometry" />
        </mxCell>
        <mxCell id="IUp1Z3UrL9nfAVYH8xyF-66" value="*" style="rounded=0;whiteSpace=wrap;html=1;hachureGap=4;fontFamily=Architects Daughter;fontSource=https%3A%2F%2Ffonts.googleapis.com%2Fcss%3Ffamily%3DArchitects%2BDaughter;strokeColor=#3A5431;fillColor=#6d8764;fontColor=#ffffff;" vertex="1" parent="1">
          <mxGeometry x="720" y="120" width="40" height="40" as="geometry" />
        </mxCell>
        <mxCell id="IUp1Z3UrL9nfAVYH8xyF-72" value="*" style="rounded=0;whiteSpace=wrap;html=1;hachureGap=4;fontFamily=Architects Daughter;fontSource=https%3A%2F%2Ffonts.googleapis.com%2Fcss%3Ffamily%3DArchitects%2BDaughter;strokeColor=#3A5431;fillColor=#6d8764;fontColor=#ffffff;" vertex="1" parent="1">
          <mxGeometry x="560" y="160" width="40" height="40" as="geometry" />
        </mxCell>
        <mxCell id="IUp1Z3UrL9nfAVYH8xyF-73" value="*" style="rounded=0;whiteSpace=wrap;html=1;hachureGap=4;fontFamily=Architects Daughter;fontSource=https%3A%2F%2Ffonts.googleapis.com%2Fcss%3Ffamily%3DArchitects%2BDaughter;strokeColor=#3A5431;fillColor=#6d8764;fontColor=#ffffff;" vertex="1" parent="1">
          <mxGeometry x="600" y="160" width="40" height="40" as="geometry" />
        </mxCell>
        <mxCell id="IUp1Z3UrL9nfAVYH8xyF-74" value="*" style="rounded=0;whiteSpace=wrap;html=1;hachureGap=4;fontFamily=Architects Daughter;fontSource=https%3A%2F%2Ffonts.googleapis.com%2Fcss%3Ffamily%3DArchitects%2BDaughter;strokeColor=#3A5431;fillColor=#6d8764;fontColor=#ffffff;" vertex="1" parent="1">
          <mxGeometry x="640" y="160" width="40" height="40" as="geometry" />
        </mxCell>
        <mxCell id="IUp1Z3UrL9nfAVYH8xyF-75" value="*" style="rounded=0;whiteSpace=wrap;html=1;hachureGap=4;fontFamily=Architects Daughter;fontSource=https%3A%2F%2Ffonts.googleapis.com%2Fcss%3Ffamily%3DArchitects%2BDaughter;strokeColor=#3A5431;fillColor=#6d8764;fontColor=#ffffff;" vertex="1" parent="1">
          <mxGeometry x="680" y="160" width="40" height="40" as="geometry" />
        </mxCell>
        <mxCell id="IUp1Z3UrL9nfAVYH8xyF-76" value="*" style="rounded=0;whiteSpace=wrap;html=1;hachureGap=4;fontFamily=Architects Daughter;fontSource=https%3A%2F%2Ffonts.googleapis.com%2Fcss%3Ffamily%3DArchitects%2BDaughter;strokeColor=#3A5431;fillColor=#6d8764;fontColor=#ffffff;" vertex="1" parent="1">
          <mxGeometry x="720" y="160" width="40" height="40" as="geometry" />
        </mxCell>
        <mxCell id="IUp1Z3UrL9nfAVYH8xyF-77" value="*" style="rounded=0;whiteSpace=wrap;html=1;hachureGap=4;fontFamily=Architects Daughter;fontSource=https%3A%2F%2Ffonts.googleapis.com%2Fcss%3Ffamily%3DArchitects%2BDaughter;strokeColor=#3A5431;fillColor=#6d8764;fontColor=#ffffff;" vertex="1" parent="1">
          <mxGeometry x="560" y="200" width="40" height="40" as="geometry" />
        </mxCell>
        <mxCell id="IUp1Z3UrL9nfAVYH8xyF-78" value="*" style="rounded=0;whiteSpace=wrap;html=1;hachureGap=4;fontFamily=Architects Daughter;fontSource=https%3A%2F%2Ffonts.googleapis.com%2Fcss%3Ffamily%3DArchitects%2BDaughter;strokeColor=#3A5431;fillColor=#6d8764;fontColor=#ffffff;" vertex="1" parent="1">
          <mxGeometry x="600" y="200" width="40" height="40" as="geometry" />
        </mxCell>
        <mxCell id="IUp1Z3UrL9nfAVYH8xyF-79" value="*" style="rounded=0;whiteSpace=wrap;html=1;hachureGap=4;fontFamily=Architects Daughter;fontSource=https%3A%2F%2Ffonts.googleapis.com%2Fcss%3Ffamily%3DArchitects%2BDaughter;strokeColor=#3A5431;fillColor=#6d8764;fontColor=#ffffff;" vertex="1" parent="1">
          <mxGeometry x="640" y="200" width="40" height="40" as="geometry" />
        </mxCell>
        <mxCell id="IUp1Z3UrL9nfAVYH8xyF-80" value="*" style="rounded=0;whiteSpace=wrap;html=1;hachureGap=4;fontFamily=Architects Daughter;fontSource=https%3A%2F%2Ffonts.googleapis.com%2Fcss%3Ffamily%3DArchitects%2BDaughter;strokeColor=#3A5431;fillColor=#6d8764;fontColor=#ffffff;" vertex="1" parent="1">
          <mxGeometry x="680" y="200" width="40" height="40" as="geometry" />
        </mxCell>
        <mxCell id="IUp1Z3UrL9nfAVYH8xyF-81" value="*" style="rounded=0;whiteSpace=wrap;html=1;hachureGap=4;fontFamily=Architects Daughter;fontSource=https%3A%2F%2Ffonts.googleapis.com%2Fcss%3Ffamily%3DArchitects%2BDaughter;strokeColor=#3A5431;fillColor=#6d8764;fontColor=#ffffff;" vertex="1" parent="1">
          <mxGeometry x="720" y="200" width="40" height="40" as="geometry" />
        </mxCell>
        <mxCell id="IUp1Z3UrL9nfAVYH8xyF-82" value="*" style="rounded=0;whiteSpace=wrap;html=1;hachureGap=4;fontFamily=Architects Daughter;fontSource=https%3A%2F%2Ffonts.googleapis.com%2Fcss%3Ffamily%3DArchitects%2BDaughter;strokeColor=#3A5431;fillColor=#6d8764;fontColor=#ffffff;" vertex="1" parent="1">
          <mxGeometry x="560" y="240" width="40" height="40" as="geometry" />
        </mxCell>
        <mxCell id="IUp1Z3UrL9nfAVYH8xyF-83" value="*" style="rounded=0;whiteSpace=wrap;html=1;hachureGap=4;fontFamily=Architects Daughter;fontSource=https%3A%2F%2Ffonts.googleapis.com%2Fcss%3Ffamily%3DArchitects%2BDaughter;strokeColor=#3A5431;fillColor=#6d8764;fontColor=#ffffff;" vertex="1" parent="1">
          <mxGeometry x="600" y="240" width="40" height="40" as="geometry" />
        </mxCell>
        <mxCell id="IUp1Z3UrL9nfAVYH8xyF-84" value="*" style="rounded=0;whiteSpace=wrap;html=1;hachureGap=4;fontFamily=Architects Daughter;fontSource=https%3A%2F%2Ffonts.googleapis.com%2Fcss%3Ffamily%3DArchitects%2BDaughter;strokeColor=#3A5431;fillColor=#6d8764;fontColor=#ffffff;" vertex="1" parent="1">
          <mxGeometry x="640" y="240" width="40" height="40" as="geometry" />
        </mxCell>
        <mxCell id="IUp1Z3UrL9nfAVYH8xyF-85" value="*" style="rounded=0;whiteSpace=wrap;html=1;hachureGap=4;fontFamily=Architects Daughter;fontSource=https%3A%2F%2Ffonts.googleapis.com%2Fcss%3Ffamily%3DArchitects%2BDaughter;strokeColor=#3A5431;fillColor=#6d8764;fontColor=#ffffff;" vertex="1" parent="1">
          <mxGeometry x="680" y="240" width="40" height="40" as="geometry" />
        </mxCell>
        <mxCell id="IUp1Z3UrL9nfAVYH8xyF-86" value="*" style="rounded=0;whiteSpace=wrap;html=1;hachureGap=4;fontFamily=Architects Daughter;fontSource=https%3A%2F%2Ffonts.googleapis.com%2Fcss%3Ffamily%3DArchitects%2BDaughter;strokeColor=#3A5431;fillColor=#6d8764;fontColor=#ffffff;" vertex="1" parent="1">
          <mxGeometry x="720" y="240" width="40" height="40" as="geometry" />
        </mxCell>
        <mxCell id="IUp1Z3UrL9nfAVYH8xyF-87" value="*" style="rounded=0;whiteSpace=wrap;html=1;hachureGap=4;fontFamily=Architects Daughter;fontSource=https%3A%2F%2Ffonts.googleapis.com%2Fcss%3Ffamily%3DArchitects%2BDaughter;strokeColor=#3A5431;fillColor=#6d8764;fontColor=#ffffff;" vertex="1" parent="1">
          <mxGeometry x="560" y="280" width="40" height="40" as="geometry" />
        </mxCell>
        <mxCell id="IUp1Z3UrL9nfAVYH8xyF-88" value="*" style="rounded=0;whiteSpace=wrap;html=1;hachureGap=4;fontFamily=Architects Daughter;fontSource=https%3A%2F%2Ffonts.googleapis.com%2Fcss%3Ffamily%3DArchitects%2BDaughter;strokeColor=#3A5431;fillColor=#6d8764;fontColor=#ffffff;" vertex="1" parent="1">
          <mxGeometry x="600" y="280" width="40" height="40" as="geometry" />
        </mxCell>
        <mxCell id="IUp1Z3UrL9nfAVYH8xyF-89" value="*" style="rounded=0;whiteSpace=wrap;html=1;hachureGap=4;fontFamily=Architects Daughter;fontSource=https%3A%2F%2Ffonts.googleapis.com%2Fcss%3Ffamily%3DArchitects%2BDaughter;strokeColor=#3A5431;fillColor=#6d8764;fontColor=#ffffff;" vertex="1" parent="1">
          <mxGeometry x="640" y="280" width="40" height="40" as="geometry" />
        </mxCell>
        <mxCell id="IUp1Z3UrL9nfAVYH8xyF-90" value="*" style="rounded=0;whiteSpace=wrap;html=1;hachureGap=4;fontFamily=Architects Daughter;fontSource=https%3A%2F%2Ffonts.googleapis.com%2Fcss%3Ffamily%3DArchitects%2BDaughter;strokeColor=#3A5431;fillColor=#6d8764;fontColor=#ffffff;" vertex="1" parent="1">
          <mxGeometry x="680" y="280" width="40" height="40" as="geometry" />
        </mxCell>
        <mxCell id="IUp1Z3UrL9nfAVYH8xyF-91" value="*" style="rounded=0;whiteSpace=wrap;html=1;hachureGap=4;fontFamily=Architects Daughter;fontSource=https%3A%2F%2Ffonts.googleapis.com%2Fcss%3Ffamily%3DArchitects%2BDaughter;strokeColor=#3A5431;fillColor=#6d8764;fontColor=#ffffff;" vertex="1" parent="1">
          <mxGeometry x="720" y="280" width="40" height="40" as="geometry" />
        </mxCell>
      </root>
    </mxGraphModel>
  </diagram>
</mxfile>
